<svg version="1.1" id="Layer_1" xmlns="http://www.w3.org/2000/svg" xmlns:xlink="http://www.w3.org/1999/xlink" x="0px" y="0px"
	 width="100%" viewBox="0 0 500 500" enable-background="new 0 0 500 500" xml:space="preserve">
<path fill="#222346" opacity="1.000000" stroke="none" 
	d="
M217.000000,1.000000 
	C236.687561,1.000000 256.375122,1.000000 276.623138,1.340227 
	C277.496185,2.041312 277.780121,2.687210 278.125427,2.721889 
	C291.201141,4.035053 304.240417,5.351991 316.749878,9.899770 
	C327.505341,13.809877 338.532715,16.982002 349.238800,21.014353 
	C356.401215,23.712036 363.433929,26.944712 370.120453,30.664618 
	C377.575562,34.812111 384.722687,39.567486 391.730560,44.450504 
	C400.096497,50.279808 408.972534,55.707478 416.194550,62.773773 
	C428.311615,74.629509 439.804932,87.220985 450.628845,100.275505 
	C464.575928,117.096870 474.892731,136.287323 483.099792,156.488419 
	C490.265533,174.126358 495.685242,192.329208 498.372314,211.270218 
	C498.608856,212.937515 500.094513,214.427597 501.000000,216.000000 
	C501.000000,239.354233 501.000000,262.708466 500.680908,286.526123 
	C499.810394,287.860901 498.989105,288.663696 498.747803,289.613800 
	C494.752380,305.344879 491.679291,321.371063 486.666718,336.766968 
	C480.949249,354.327911 472.173920,370.675842 462.144196,386.226990 
	C451.619385,402.545807 439.609772,417.604919 425.560059,431.172516 
	C413.420990,442.894989 400.568634,453.740448 386.222809,462.319275 
	C371.722504,470.990387 356.368439,478.449829 340.803711,485.064117 
	C325.338135,491.636200 308.970337,495.814056 292.252838,498.324097 
	C290.409546,498.600891 288.746582,500.079041 287.000000,501.000000 
	C285.285645,501.000000 283.571289,501.000000 281.461639,500.749451 
	C280.877441,500.249298 280.688568,499.999725 280.499695,499.750122 
	C280.333130,500.166748 280.166565,500.583374 280.000000,501.000000 
	C269.979095,501.000000 259.958221,501.000000 249.240128,500.764465 
	C247.361954,500.685944 246.180984,500.842957 245.000000,501.000000 
	C243.933334,501.000000 242.866653,501.000000 241.302185,500.864136 
	C240.466476,500.550751 240.198334,500.641296 240.000000,501.000000 
	C233.978851,501.000000 227.957703,501.000000 221.497803,500.749908 
	C220.868713,500.250946 220.678406,500.002106 220.488068,499.753235 
	C220.325363,500.168823 220.162674,500.584412 220.000000,501.000000 
	C218.611115,501.000000 217.222214,501.000000 215.428757,500.680023 
	C214.316650,499.789520 213.683731,498.872833 212.890091,498.701813 
	C204.625763,496.920441 196.263336,495.546082 188.072678,493.484467 
	C179.655884,491.365875 171.106049,489.308868 163.141953,485.967590 
	C151.049393,480.894287 139.286102,474.980682 127.612434,468.977783 
	C111.625084,460.756653 96.970207,450.403442 83.995781,438.029419 
	C73.422867,427.945770 63.606186,417.027374 53.940601,406.050781 
	C48.643597,400.035339 43.798973,393.460968 39.721096,386.564606 
	C30.013149,370.146942 20.932682,353.325958 15.027948,335.099701 
	C11.495033,324.194519 8.528628,313.073639 5.962125,301.899353 
	C4.347356,294.868866 4.000004,287.551788 2.924012,280.387299 
	C2.792989,279.514923 1.665621,278.792114 1.000002,278.000000 
	C1.000000,260.312439 1.000000,242.624878 1.395183,224.398438 
	C2.201115,222.849945 2.830744,221.872894 2.986488,220.825363 
	C3.883128,214.794678 4.267096,208.658768 5.579024,202.725281 
	C7.844176,192.480621 10.151367,182.192078 13.390959,172.230927 
	C16.674290,162.135269 20.420961,152.064713 25.218498,142.620041 
	C30.779690,131.671997 37.346344,121.178421 44.148682,110.933868 
	C50.229111,101.776550 56.648952,92.710648 63.970749,84.547760 
	C71.895851,75.712265 80.798553,67.696495 89.722977,59.831680 
	C97.547440,52.936226 105.433624,45.821228 114.295113,40.460468 
	C127.349258,32.563354 140.996811,25.472303 154.934387,19.254585 
	C172.373779,11.474674 191.067749,7.464530 209.753159,3.699310 
	C212.248749,3.196434 214.588226,1.918833 217.000000,1.000000 
M302.911804,121.908218 
	C302.911804,121.908218 302.897461,121.809807 302.383148,122.005707 
	C302.195007,122.308395 302.006866,122.611092 301.891174,122.880150 
	C301.891174,122.880150 301.844604,122.815224 301.290009,123.065048 
	C300.540894,123.749855 299.791748,124.434662 298.175262,125.093987 
	C297.598450,125.051407 297.021637,125.008835 296.398651,124.454582 
	C296.254913,124.147850 296.111145,123.841118 296.332855,122.818893 
	C298.284546,120.387260 300.236267,117.955620 302.765747,115.217651 
	C303.023224,114.871277 303.280701,114.524910 304.054413,113.970413 
	C304.758545,113.132149 305.462646,112.293884 306.713135,111.225121 
	C307.097076,110.792557 307.481018,110.359993 307.940582,109.941032 
	C307.940582,109.941032 307.926910,109.865433 308.464935,109.592079 
	C308.687958,109.063560 308.910980,108.535042 309.478973,107.465240 
	C311.324188,105.642441 313.169403,103.819641 315.544312,101.932983 
	C315.722961,101.635696 315.901581,101.338402 316.005310,101.018852 
	C316.005310,101.018852 316.057648,101.076897 316.671021,100.826462 
	C323.642181,93.522835 331.091919,86.622047 337.158813,78.557281 
	C336.614258,78.051117 336.069702,77.544960 335.525146,77.038803 
	C328.902100,83.424362 322.279022,89.809921 315.132935,96.504814 
	C314.734985,96.957497 314.337067,97.410187 313.407135,98.032043 
	C313.201599,98.329987 312.996063,98.627930 312.274017,99.255188 
	C311.146912,100.425293 310.019836,101.595390 308.335114,103.003334 
	C307.650787,103.705391 306.966461,104.407455 306.087830,105.220345 
	C306.087830,105.220345 306.053223,105.441322 305.797180,105.478485 
	C305.628265,105.566788 305.543732,105.706207 305.096039,106.205688 
	C305.001526,106.360359 304.906982,106.515038 304.236023,106.887985 
	C303.723816,107.494934 303.211609,108.101891 302.995117,108.985947 
	C302.995117,108.985947 302.698517,108.705772 302.107727,108.942055 
	C300.786377,110.314423 299.465027,111.686790 297.561005,113.384720 
	C295.375244,115.593391 293.189453,117.802055 290.414825,120.257530 
	C289.287689,121.510864 288.160553,122.764191 286.588837,124.203934 
	C286.299255,124.374123 286.096191,124.616737 285.483582,125.105423 
	C285.312775,125.401733 285.141968,125.698044 284.476959,126.278992 
	C283.987274,126.857315 283.497559,127.435646 282.522705,128.145660 
	C282.382324,128.431778 282.241943,128.717896 281.876190,129.262833 
	C281.876190,129.262833 281.795532,129.596405 281.223724,129.944839 
	C280.472992,131.288315 279.722260,132.631805 279.000000,134.000000 
	C279.000000,134.000000 278.973053,133.973724 278.475952,134.311340 
	C278.209473,134.838867 277.943024,135.366409 277.282349,136.371033 
	C276.827362,137.515778 276.372345,138.660538 275.428284,139.925461 
	C275.284912,140.012817 275.141571,140.100189 274.327606,140.090012 
	C273.250366,139.768585 272.173126,139.447159 270.561066,138.594772 
	C269.703247,137.178268 268.860687,135.752182 267.982727,134.348267 
	C267.287445,133.236481 266.548676,132.151886 265.421844,130.996353 
	C265.421844,130.996353 265.011230,130.968185 264.997528,131.002563 
	C264.997528,131.002563 265.031860,130.988892 265.010193,130.595245 
	C265.010193,130.595245 264.948792,130.205811 264.606689,129.681549 
	C264.245148,129.479340 263.883636,129.277145 263.028015,129.013107 
	C262.710815,128.884888 262.383820,128.850815 262.035187,128.989960 
	C262.035187,128.989960 262.092804,128.934525 262.038879,128.577087 
	C262.038879,128.577087 261.960876,128.223892 261.607086,127.512444 
	C257.231812,125.379593 252.954498,124.484177 248.673599,128.998138 
	C247.516068,130.649078 246.358551,132.300018 245.042328,134.827927 
	C245.042328,136.057495 245.042328,137.287064 245.042328,138.508926 
	C242.622437,139.109512 240.315796,139.682007 237.401215,140.283539 
	C236.590881,141.149918 235.780548,142.016281 234.395874,142.956619 
	C232.585373,143.088669 230.758377,143.427048 228.969879,143.283981 
	C227.664185,143.179565 226.409195,142.441147 224.842407,141.372131 
	C204.183960,120.683365 183.540665,99.979362 162.821991,79.351089 
	C161.791962,78.325554 160.106323,77.958511 158.725937,77.284859 
	C158.349976,78.956184 157.696732,80.626366 157.689819,82.299217 
	C157.684738,83.535599 158.521774,84.775467 158.962250,86.512383 
	C158.962250,86.512383 159.171127,86.965614 159.135971,87.620399 
	C159.483063,88.414009 159.830154,89.207611 160.190948,90.717377 
	C170.154633,115.456955 188.810181,133.589706 207.025726,152.858093 
	C205.958344,153.998352 204.995636,155.263458 203.807434,156.259613 
	C191.453781,166.616684 181.550690,178.689346 176.320786,195.038605 
	C174.831757,201.765823 173.086884,208.451050 171.972778,215.239792 
	C171.490189,218.180405 170.741669,219.294434 167.641800,219.875504 
	C165.569321,220.263992 163.045273,222.497696 162.266998,224.504379 
	C161.193115,227.273239 162.561981,230.001846 166.904556,231.077454 
	C174.415207,231.081757 181.925873,231.086044 189.350159,231.759109 
	C188.765991,232.676193 188.181824,233.593277 187.515625,234.527939 
	C187.515625,234.527939 187.462753,234.593094 186.864029,234.827728 
	C178.469635,242.089844 169.799347,249.065567 161.816757,256.755188 
	C158.628983,259.826019 156.441467,264.272675 154.815704,268.485535 
	C154.000610,270.597748 155.467133,273.590393 156.189651,276.810791 
	C159.255722,281.100800 163.193619,282.176941 168.739868,279.999664 
	C171.660858,278.188080 175.198624,276.928284 177.397461,274.470581 
	C187.626740,263.037140 197.485474,251.272202 207.510529,239.436325 
	C207.510529,239.436325 207.326340,239.380325 207.920593,239.185577 
	C208.147018,238.840591 208.373444,238.495590 208.865707,238.108292 
	C208.865707,238.108292 208.997864,237.873764 209.536896,237.647217 
	C209.809906,237.141678 210.082916,236.636124 210.734299,235.956100 
	C210.972260,235.781723 211.111801,235.548462 211.715454,234.911041 
	C212.682281,233.712769 213.649124,232.514496 215.473465,231.268555 
	C240.530197,231.247009 265.586945,231.212204 290.643646,231.238220 
	C292.089111,231.239716 293.534088,231.736221 295.233734,232.627014 
	C299.709076,238.054123 304.184418,243.481232 308.869720,249.475647 
	C314.874817,256.744873 320.688599,264.185730 326.980621,271.197479 
	C329.443665,273.942291 332.979614,275.724274 336.007721,278.001587 
	C336.007721,278.001587 336.058258,277.969208 336.473328,278.551147 
	C344.255188,282.148041 347.220886,282.043030 351.692261,277.672058 
	C355.456543,273.852936 354.591827,269.558472 352.050385,265.865204 
	C348.790527,261.127899 345.195190,256.471924 341.026947,252.541809 
	C333.443970,245.392044 325.332184,238.803131 318.187286,231.448288 
	C326.250916,231.364105 334.319611,231.410065 342.374420,231.097794 
	C344.224579,231.026077 346.027008,229.723373 348.047974,228.626572 
	C348.047974,228.626572 348.104706,228.219803 348.646454,228.021149 
	C349.703094,222.240723 347.164673,219.626312 340.808075,220.263351 
	C340.514679,219.229309 340.021667,218.163528 339.928192,217.063828 
	C337.789612,191.892471 326.820251,171.480942 307.085175,155.722809 
	C306.391754,155.169113 306.274384,153.893967 306.479858,152.677475 
	C308.006256,151.161301 309.532654,149.645111 311.626221,147.921890 
	C312.098297,147.288849 312.570404,146.655792 313.493469,145.870056 
	C313.792450,145.709991 313.982513,145.465332 314.670624,144.845901 
	C329.340515,129.843887 344.085175,114.909874 357.921539,99.149467 
	C357.565399,98.754036 357.209290,98.358612 356.853149,97.963188 
	C356.000336,98.338287 355.147491,98.713394 353.772491,99.282120 
	C353.527588,99.554680 353.282684,99.827240 353.056305,100.025749 
	C353.056305,100.025749 353.100494,100.087967 352.364136,100.072868 
	C351.581024,101.057518 350.797913,102.042168 349.998779,102.998520 
	C349.998779,102.998520 350.027588,103.013924 349.418732,103.118790 
	C348.929077,103.714561 348.439392,104.310333 347.972504,104.974075 
	C347.972504,104.974075 347.901367,104.965103 347.526794,105.215218 
	C347.293549,105.413452 347.115784,105.652878 346.836609,106.138489 
	C346.836609,106.138489 346.578491,106.142067 345.971649,106.331772 
	C345.690002,106.637863 345.408356,106.943954 345.226746,107.179634 
	C345.226746,107.179634 345.285553,107.286896 344.556061,107.217049 
	C342.915314,108.419525 341.267639,109.612663 339.635559,110.826729 
	C337.353546,112.524216 336.129120,112.030930 336.032227,109.049019 
	C336.032227,109.049019 336.105316,109.053619 336.692963,108.896851 
	C337.134094,108.272896 337.575195,107.648949 338.289032,106.529396 
	C338.831726,106.012726 339.374420,105.496056 340.369659,104.722992 
	C340.569214,104.444000 340.768738,104.165001 341.159485,103.477989 
	C341.342682,103.223679 341.585114,103.053978 342.354065,102.700432 
	C342.551208,102.405022 342.748322,102.109619 343.136017,101.312332 
	C343.656067,100.834877 344.176117,100.357430 345.420959,99.789536 
	C345.890656,99.039948 346.360352,98.290359 347.031677,97.077766 
	C347.388214,96.727280 347.744781,96.376801 348.477478,95.759659 
	C348.712250,95.551910 348.888977,95.302986 349.232880,94.580612 
	C349.433136,94.311523 349.690887,94.119698 350.426941,93.680534 
	C350.586823,93.368645 350.746704,93.056755 350.650116,92.252548 
	C349.274719,92.636787 347.600006,92.649933 346.578888,93.473465 
	C343.250824,96.157654 340.161377,99.137749 336.315338,101.887474 
	C332.921967,100.500740 334.688568,98.830597 335.937897,97.001907 
	C337.719116,94.394684 339.310211,91.657600 340.994598,88.999664 
	C340.994598,88.999664 340.975220,88.983734 341.708557,88.961975 
	C342.684814,87.696838 343.661072,86.431694 344.637329,85.166550 
	C343.739838,84.531868 342.284058,83.189255 342.039276,83.382286 
	C340.834137,84.332687 339.950256,85.690453 338.966370,86.974663 
	C338.966370,86.974663 338.895203,86.967758 338.524139,87.205116 
	C338.291962,87.392769 338.108215,87.619659 337.572113,88.452797 
	C336.237335,89.837563 334.950439,91.272507 333.560120,92.599045 
	C323.693634,102.012802 313.806030,111.404373 303.403015,120.993851 
	C303.206116,121.298759 303.009247,121.603676 302.911804,121.908218 
M235.334763,337.499817 
	C235.334763,348.573853 235.334763,359.647858 235.334763,370.742432 
	C241.994247,370.742432 247.831680,371.033051 253.626999,370.663269 
	C259.814117,370.268524 265.382050,368.077423 268.770142,362.413025 
	C274.528839,352.785431 270.741974,337.487518 261.064392,331.703705 
	C262.182495,330.914825 263.267761,330.265167 264.220001,329.458466 
	C270.528320,324.114136 270.475159,316.953247 269.515930,309.719788 
	C268.745117,303.906982 265.203491,299.432892 259.627747,298.422180 
	C251.767319,296.997314 243.660355,296.932434 235.336105,296.259979 
	C235.336105,310.534332 235.336105,323.517059 235.334763,337.499817 
M162.747711,339.067688 
	C164.590134,340.002319 166.432571,340.936981 169.231323,342.356781 
	C168.494247,347.530304 168.080276,353.496429 166.570587,359.171051 
	C166.116486,360.877899 162.602783,362.757629 160.510361,362.735077 
	C158.781021,362.716400 156.629623,360.281647 155.506500,358.412079 
	C154.565125,356.845093 154.619675,354.549042 154.610641,352.574066 
	C154.554230,340.246277 154.578445,327.917877 154.646240,315.590088 
	C154.656219,313.774689 154.926208,311.939240 155.274826,310.151886 
	C155.877518,307.061829 157.547974,305.047546 160.975113,304.924561 
	C164.433670,304.800446 166.284836,306.745300 166.942963,309.800537 
	C167.700897,313.319183 168.101013,316.914917 168.682556,320.644043 
	C171.375229,320.644043 173.983383,320.644043 177.623016,320.644043 
	C177.623016,316.034821 178.035324,311.566284 177.509186,307.211121 
	C176.962967,302.689819 174.317856,299.111481 169.843964,297.533051 
	C160.053864,294.079041 146.611679,296.142120 143.978928,309.813385 
	C143.447495,312.572968 142.794937,315.366425 142.752213,318.152740 
	C142.596436,328.313263 142.452484,338.484375 142.771896,348.636780 
	C142.905655,352.888428 143.759201,357.249573 145.075974,361.304260 
	C147.764526,369.583008 157.084457,374.091705 164.194824,370.663483 
	C166.673828,369.468262 168.641220,367.211945 170.919556,365.377960 
	C171.413971,367.252625 171.872864,368.992615 172.347443,370.792053 
	C174.643646,370.792053 176.779205,370.792053 179.192993,370.792053 
	C179.192993,358.245392 179.192993,345.862000 179.192993,333.501801 
	C173.585144,333.501801 168.348679,333.501801 162.712830,333.501801 
	C162.712830,335.285004 162.712830,336.763397 162.747711,339.067688 
M187.756760,322.753540 
	C187.756348,325.582764 187.630539,328.418549 187.778534,331.239960 
	C188.264435,340.502716 188.084854,349.889099 189.617538,358.982513 
	C191.074539,367.627045 197.478683,371.695343 206.253036,371.674652 
	C214.700668,371.654724 221.002060,367.153229 222.870880,358.705048 
	C226.322418,343.102020 225.578384,327.198761 223.645920,311.580170 
	C222.246582,300.270416 216.237427,296.068268 206.335434,296.031708 
	C196.556412,295.995605 191.358582,300.369843 188.714203,311.434845 
	C187.914703,314.780243 188.051147,318.349304 187.756760,322.753540 
M321.398132,338.958893 
	C325.578674,327.576385 329.829559,316.218842 333.882599,304.791138 
	C334.730774,302.399567 334.849579,299.749329 335.308868,297.193726 
	C324.171661,297.193726 313.782562,297.193726 303.347717,297.193726 
	C303.347717,300.048981 303.347717,302.511993 303.347717,305.614807 
	C309.551025,305.614807 315.587524,305.614807 321.998383,305.614807 
	C321.310486,307.699402 320.891418,309.116852 320.378998,310.499756 
	C313.973785,327.785950 307.496887,345.045990 301.204742,362.373169 
	C300.295776,364.876251 300.257996,367.695709 299.759003,370.720703 
	C311.402740,370.720703 322.142914,370.720703 333.105347,370.720703 
	C333.105347,367.892792 333.105347,365.302979 333.105347,362.178955 
	C326.289032,362.178955 319.753937,362.178955 312.758484,362.178955 
	C315.699860,354.264343 318.408661,346.975494 321.398132,338.958893 
M351.580261,296.809357 
	C348.173096,296.809357 344.765930,296.809357 341.329712,296.809357 
	C341.329712,300.051239 341.329712,302.511841 341.329712,305.687134 
	C347.341400,305.687134 353.189880,305.687134 359.333618,305.687134 
	C359.065399,307.071228 359.028778,307.736908 358.807281,308.333984 
	C352.282227,325.920502 345.663300,343.472870 339.272003,361.107727 
	C338.193146,364.084595 338.083435,367.412689 337.514038,370.646118 
	C349.203827,370.646118 359.967499,370.646118 370.735291,370.646118 
	C370.735291,367.767456 370.735291,365.209656 370.735291,362.207275 
	C363.965363,362.207275 357.544189,362.207275 350.706238,362.207275 
	C351.154572,360.591095 351.378632,359.482361 351.765594,358.433746 
	C358.145508,341.145264 364.624420,323.892578 370.865601,306.554291 
	C371.922852,303.617096 371.977325,300.318970 372.557556,296.809998 
	C365.186371,296.809998 358.871490,296.809998 351.580261,296.809357 
M291.954773,319.500031 
	C291.954773,312.062073 291.954773,304.624115 291.954773,297.126556 
	C287.997009,297.126556 284.601349,297.126556 281.127594,297.126556 
	C281.127594,321.791962 281.127594,346.164490 281.127594,370.631836 
	C284.811310,370.631836 288.198914,370.631836 291.954773,370.631836 
	C291.954773,353.722992 291.954773,337.111511 291.954773,319.500031 
z"/>
<path fill="#000000" opacity="1.000000" stroke="none" 
	d="
M501.000000,215.531342 
	C500.094513,214.427597 498.608856,212.937515 498.372314,211.270218 
	C495.685242,192.329208 490.265533,174.126358 483.099792,156.488419 
	C474.892731,136.287323 464.575928,117.096870 450.628845,100.275505 
	C439.804932,87.220985 428.311615,74.629509 416.194550,62.773773 
	C408.972534,55.707478 400.096497,50.279808 391.730560,44.450504 
	C384.722687,39.567486 377.575562,34.812111 370.120453,30.664618 
	C363.433929,26.944712 356.401215,23.712036 349.238800,21.014353 
	C338.532715,16.982002 327.505341,13.809877 316.749878,9.899770 
	C304.240417,5.351991 291.201141,4.035053 278.125427,2.721889 
	C277.780121,2.687210 277.496185,2.041312 277.091797,1.340227 
	C351.592194,1.000000 426.184418,1.000000 501.000000,1.000000 
	C501.000000,72.354073 501.000000,143.708374 501.000000,215.531342 
z"/>
<path fill="#000000" opacity="1.000000" stroke="none" 
	d="
M216.531342,1.000000 
	C214.588226,1.918833 212.248749,3.196434 209.753159,3.699310 
	C191.067749,7.464530 172.373779,11.474674 154.934387,19.254585 
	C140.996811,25.472303 127.349258,32.563354 114.295113,40.460468 
	C105.433624,45.821228 97.547440,52.936226 89.722977,59.831680 
	C80.798553,67.696495 71.895851,75.712265 63.970749,84.547760 
	C56.648952,92.710648 50.229111,101.776550 44.148682,110.933868 
	C37.346344,121.178421 30.779690,131.671997 25.218498,142.620041 
	C20.420961,152.064713 16.674290,162.135269 13.390959,172.230927 
	C10.151367,182.192078 7.844176,192.480621 5.579024,202.725281 
	C4.267096,208.658768 3.883128,214.794678 2.986488,220.825363 
	C2.830744,221.872894 2.201115,222.849945 1.395183,223.929779 
	C1.000000,149.740784 1.000000,75.481583 1.000000,1.000000 
	C72.687408,1.000000 144.375046,1.000000 216.531342,1.000000 
z"/>
<path fill="#000000" opacity="1.000000" stroke="none" 
	d="
M1.000002,278.468658 
	C1.665621,278.792114 2.792989,279.514923 2.924012,280.387299 
	C4.000004,287.551788 4.347356,294.868866 5.962125,301.899353 
	C8.528628,313.073639 11.495033,324.194519 15.027948,335.099701 
	C20.932682,353.325958 30.013149,370.146942 39.721096,386.564606 
	C43.798973,393.460968 48.643597,400.035339 53.940601,406.050781 
	C63.606186,417.027374 73.422867,427.945770 83.995781,438.029419 
	C96.970207,450.403442 111.625084,460.756653 127.612434,468.977783 
	C139.286102,474.980682 151.049393,480.894287 163.141953,485.967590 
	C171.106049,489.308868 179.655884,491.365875 188.072678,493.484467 
	C196.263336,495.546082 204.625763,496.920441 212.890091,498.701813 
	C213.683731,498.872833 214.316650,499.789520 215.012085,500.680023 
	C143.738129,501.000000 72.476273,501.000000 1.000000,501.000000 
	C1.000000,426.979248 1.000000,352.958282 1.000002,278.468658 
z"/>
<path fill="#000000" opacity="1.000000" stroke="none" 
	d="
M287.468658,501.000000 
	C288.746582,500.079041 290.409546,498.600891 292.252838,498.324097 
	C308.970337,495.814056 325.338135,491.636200 340.803711,485.064117 
	C356.368439,478.449829 371.722504,470.990387 386.222809,462.319275 
	C400.568634,453.740448 413.420990,442.894989 425.560059,431.172516 
	C439.609772,417.604919 451.619385,402.545807 462.144196,386.226990 
	C472.173920,370.675842 480.949249,354.327911 486.666718,336.766968 
	C491.679291,321.371063 494.752380,305.344879 498.747803,289.613800 
	C498.989105,288.663696 499.810394,287.860901 500.680908,286.994781 
	C501.000000,358.260376 501.000000,429.520721 501.000000,501.000000 
	C429.979248,501.000000 358.958282,501.000000 287.468658,501.000000 
z"/>
<path fill="#0E1032" opacity="1.000000" stroke="none" 
	d="
M245.399994,501.000000 
	C246.180984,500.842957 247.361954,500.685944 248.771469,500.764465 
	C247.933334,501.000000 246.866653,501.000000 245.399994,501.000000 
z"/>
<path fill="#000000" opacity="1.000000" stroke="none" 
	d="
M280.250000,501.000000 
	C280.166565,500.583374 280.333130,500.166748 280.499695,499.750122 
	C280.688568,499.999725 280.877441,500.249298 281.033173,500.749451 
	C281.000000,501.000000 280.500000,501.000000 280.250000,501.000000 
z"/>
<path fill="#000000" opacity="1.000000" stroke="none" 
	d="
M220.250000,501.000000 
	C220.162674,500.584412 220.325363,500.168823 220.488068,499.753235 
	C220.678406,500.002106 220.868713,500.250946 221.029510,500.749908 
	C221.000000,501.000000 220.500000,501.000000 220.250000,501.000000 
z"/>
<path fill="#0E1032" opacity="1.000000" stroke="none" 
	d="
M240.250000,501.000000 
	C240.198334,500.641296 240.466476,500.550751 240.902191,500.864136 
	C241.000000,501.000000 240.500000,501.000000 240.250000,501.000000 
z"/>
<path fill="#F6F6F8" opacity="1.000000" stroke="none" 
	d="
M235.335434,336.999817 
	C235.336105,323.517059 235.336105,310.534332 235.336105,296.259979 
	C243.660355,296.932434 251.767319,296.997314 259.627747,298.422180 
	C265.203491,299.432892 268.745117,303.906982 269.515930,309.719788 
	C270.475159,316.953247 270.528320,324.114136 264.220001,329.458466 
	C263.267761,330.265167 262.182495,330.914825 261.064392,331.703705 
	C270.741974,337.487518 274.528839,352.785431 268.770142,362.413025 
	C265.382050,368.077423 259.814117,370.268524 253.626999,370.663269 
	C247.831680,371.033051 241.994247,370.742432 235.334763,370.742432 
	C235.334763,359.647858 235.334763,348.573853 235.335434,336.999817 
M248.613800,336.392670 
	C247.830475,337.204071 246.384628,338.001129 246.366714,338.829102 
	C246.194763,346.771484 246.263824,354.719116 246.263824,362.583862 
	C254.306046,363.848267 258.776489,361.184814 259.633942,354.966797 
	C261.371582,342.365387 258.648834,337.409760 248.613800,336.392670 
M246.245483,315.516968 
	C246.245483,319.778198 246.245483,324.039429 246.245483,328.416534 
	C251.058533,328.873444 255.060837,328.284637 257.182587,324.309753 
	C259.821411,319.366180 259.599670,313.970337 257.117798,309.032013 
	C255.026459,304.870728 250.990585,304.479187 246.246262,305.197571 
	C246.246262,308.324280 246.246262,311.432373 246.245483,315.516968 
z"/>
<path fill="#F4F4F6" opacity="1.000000" stroke="none" 
	d="
M162.730270,338.654724 
	C162.712830,336.763397 162.712830,335.285004 162.712830,333.501801 
	C168.348679,333.501801 173.585144,333.501801 179.192993,333.501801 
	C179.192993,345.862000 179.192993,358.245392 179.192993,370.792053 
	C176.779205,370.792053 174.643646,370.792053 172.347443,370.792053 
	C171.872864,368.992615 171.413971,367.252625 170.919556,365.377960 
	C168.641220,367.211945 166.673828,369.468262 164.194824,370.663483 
	C157.084457,374.091705 147.764526,369.583008 145.075974,361.304260 
	C143.759201,357.249573 142.905655,352.888428 142.771896,348.636780 
	C142.452484,338.484375 142.596436,328.313263 142.752213,318.152740 
	C142.794937,315.366425 143.447495,312.572968 143.978928,309.813385 
	C146.611679,296.142120 160.053864,294.079041 169.843964,297.533051 
	C174.317856,299.111481 176.962967,302.689819 177.509186,307.211121 
	C178.035324,311.566284 177.623016,316.034821 177.623016,320.644043 
	C173.983383,320.644043 171.375229,320.644043 168.682556,320.644043 
	C168.101013,316.914917 167.700897,313.319183 166.942963,309.800537 
	C166.284836,306.745300 164.433670,304.800446 160.975113,304.924561 
	C157.547974,305.047546 155.877518,307.061829 155.274826,310.151886 
	C154.926208,311.939240 154.656219,313.774689 154.646240,315.590088 
	C154.578445,327.917877 154.554230,340.246277 154.610641,352.574066 
	C154.619675,354.549042 154.565125,356.845093 155.506500,358.412079 
	C156.629623,360.281647 158.781021,362.716400 160.510361,362.735077 
	C162.602783,362.757629 166.116486,360.877899 166.570587,359.171051 
	C168.080276,353.496429 168.494247,347.530304 169.231323,342.356781 
	C166.432571,340.936981 164.590134,340.002319 162.730270,338.654724 
z"/>
<path fill="#F8F8F9" opacity="1.000000" stroke="none" 
	d="
M187.757812,322.284729 
	C188.051147,318.349304 187.914703,314.780243 188.714203,311.434845 
	C191.358582,300.369843 196.556412,295.995605 206.335434,296.031708 
	C216.237427,296.068268 222.246582,300.270416 223.645920,311.580170 
	C225.578384,327.198761 226.322418,343.102020 222.870880,358.705048 
	C221.002060,367.153229 214.700668,371.654724 206.253036,371.674652 
	C197.478683,371.695343 191.074539,367.627045 189.617538,358.982513 
	C188.084854,349.889099 188.264435,340.502716 187.778534,331.239960 
	C187.630539,328.418549 187.756348,325.582764 187.757812,322.284729 
M213.010757,315.842773 
	C212.749451,314.207642 212.482925,312.573334 212.227936,310.937195 
	C211.692947,307.504669 210.349136,304.897858 206.295547,304.889221 
	C201.990585,304.880035 200.216537,307.702728 200.166489,311.288086 
	C199.955780,326.382690 200.029251,341.481354 200.034241,356.578552 
	C200.034500,357.389648 200.315735,358.212402 200.538345,359.009583 
	C201.375153,362.006195 203.492996,363.811951 206.423294,362.977112 
	C208.460449,362.396759 210.864273,360.760040 211.717575,358.943756 
	C212.857742,356.516907 212.946518,353.462189 212.977280,350.671539 
	C213.101776,339.373199 213.030945,328.072693 213.010757,315.842773 
z"/>
<path fill="#F5F5F7" opacity="1.000000" stroke="none" 
	d="
M321.257812,339.322784 
	C318.408661,346.975494 315.699860,354.264343 312.758484,362.178955 
	C319.753937,362.178955 326.289032,362.178955 333.105347,362.178955 
	C333.105347,365.302979 333.105347,367.892792 333.105347,370.720703 
	C322.142914,370.720703 311.402740,370.720703 299.759003,370.720703 
	C300.257996,367.695709 300.295776,364.876251 301.204742,362.373169 
	C307.496887,345.045990 313.973785,327.785950 320.378998,310.499756 
	C320.891418,309.116852 321.310486,307.699402 321.998383,305.614807 
	C315.587524,305.614807 309.551025,305.614807 303.347717,305.614807 
	C303.347717,302.511993 303.347717,300.048981 303.347717,297.193726 
	C313.782562,297.193726 324.171661,297.193726 335.308868,297.193726 
	C334.849579,299.749329 334.730774,302.399567 333.882599,304.791138 
	C329.829559,316.218842 325.578674,327.576385 321.257812,339.322784 
z"/>
<path fill="#F5F5F7" opacity="1.000000" stroke="none" 
	d="
M352.068451,296.809692 
	C358.871490,296.809998 365.186371,296.809998 372.557556,296.809998 
	C371.977325,300.318970 371.922852,303.617096 370.865601,306.554291 
	C364.624420,323.892578 358.145508,341.145264 351.765594,358.433746 
	C351.378632,359.482361 351.154572,360.591095 350.706238,362.207275 
	C357.544189,362.207275 363.965363,362.207275 370.735291,362.207275 
	C370.735291,365.209656 370.735291,367.767456 370.735291,370.646118 
	C359.967499,370.646118 349.203827,370.646118 337.514038,370.646118 
	C338.083435,367.412689 338.193146,364.084595 339.272003,361.107727 
	C345.663300,343.472870 352.282227,325.920502 358.807281,308.333984 
	C359.028778,307.736908 359.065399,307.071228 359.333618,305.687134 
	C353.189880,305.687134 347.341400,305.687134 341.329712,305.687134 
	C341.329712,302.511841 341.329712,300.051239 341.329712,296.809357 
	C344.765930,296.809357 348.173096,296.809357 352.068451,296.809692 
z"/>
<path fill="#65C2C2" opacity="1.000000" stroke="none" 
	d="
M158.983627,86.013786 
	C158.521774,84.775467 157.684738,83.535599 157.689819,82.299217 
	C157.696732,80.626366 158.349976,78.956184 158.725952,77.284859 
	C160.106323,77.958511 161.791962,78.325554 162.821991,79.351089 
	C183.540665,99.979362 204.183960,120.683365 224.880051,142.032806 
	C219.973373,144.836090 215.029068,146.978699 209.826126,148.887177 
	C207.012512,145.887314 204.328079,143.229126 201.925491,140.336823 
	C192.711166,129.244247 183.636276,118.035713 174.401703,106.960205 
	C171.378571,103.334427 167.424286,100.341980 165.052948,96.369225 
	C163.621872,93.971672 163.742142,90.727936 160.177246,90.001221 
	C159.830154,89.207611 159.483063,88.414009 159.256287,87.176048 
	C159.460495,86.391075 159.329514,86.151772 158.983627,86.013786 
z"/>
<path fill="#65C3C2" opacity="1.000000" stroke="none" 
	d="
M317.441101,231.980179 
	C325.332184,238.803131 333.443970,245.392044 341.026947,252.541809 
	C345.195190,256.471924 348.790527,261.127899 352.050385,265.865204 
	C354.591827,269.558472 355.456543,273.852936 350.991180,277.864014 
	C346.888428,279.828278 343.520691,280.844910 339.833588,278.573151 
	C338.831512,277.955719 337.330353,278.148376 336.058258,277.969208 
	C336.058258,277.969208 336.007721,278.001587 336.009430,277.584198 
	C334.969177,274.830872 334.321075,272.192657 332.806580,270.219391 
	C329.198364,265.518158 325.247620,261.071777 321.308716,256.634827 
	C317.805328,252.688492 314.131836,248.893204 309.843750,244.291077 
	C309.213928,246.747299 308.936829,247.827805 308.659760,248.908325 
	C304.184418,243.481232 299.709076,238.054123 295.486938,232.154343 
	C302.973785,231.781174 310.207458,231.880676 317.441101,231.980179 
z"/>
<path fill="#64C5C3" opacity="1.000000" stroke="none" 
	d="
M211.152908,235.256332 
	C211.111801,235.548462 210.972260,235.781723 210.272034,236.157776 
	C209.539139,236.864227 209.268494,237.369003 208.997864,237.873764 
	C208.997864,237.873764 208.865707,238.108292 208.433395,238.233185 
	C207.776169,238.698822 207.551239,239.039566 207.326324,239.380310 
	C207.326340,239.380325 207.510529,239.436325 207.121368,239.398132 
	C202.824509,242.236221 198.737167,244.904816 195.078949,248.069489 
	C193.003342,249.865051 191.816483,252.647125 189.909149,254.685257 
	C182.274338,262.843628 173.028793,269.597107 168.009338,280.017151 
	C163.193619,282.176941 159.255722,281.100800 156.067169,276.056763 
	C155.944702,273.175079 155.944702,271.047363 155.944702,268.919678 
	C156.561966,269.140778 157.179214,269.361877 157.796478,269.582977 
	C159.133316,267.510223 160.118988,265.061279 161.867310,263.429352 
	C169.774002,256.049164 177.709549,248.673935 186.040955,241.788498 
	C189.006439,239.337723 189.882462,237.580872 187.462753,234.593094 
	C187.462753,234.593094 187.515625,234.527939 187.973999,234.644470 
	C193.416199,234.160400 198.410889,233.632965 203.374283,232.895020 
	C204.320526,232.754349 205.143127,231.782120 206.391571,231.168304 
	C207.498795,231.160263 208.237198,231.177490 209.073837,231.505997 
	C209.832336,232.963638 210.492630,234.109985 211.152908,235.256332 
z"/>
<path fill="#FCFCFD" opacity="1.000000" stroke="none" 
	d="
M291.954773,320.000000 
	C291.954773,337.111511 291.954773,353.722992 291.954773,370.631836 
	C288.198914,370.631836 284.811310,370.631836 281.127594,370.631836 
	C281.127594,346.164490 281.127594,321.791962 281.127594,297.126556 
	C284.601349,297.126556 287.997009,297.126556 291.954773,297.126556 
	C291.954773,304.624115 291.954773,312.062073 291.954773,320.000000 
z"/>
<path fill="#64C4C3" opacity="1.000000" stroke="none" 
	d="
M291.003662,120.010719 
	C293.189453,117.802055 295.375244,115.593391 298.208649,113.200333 
	C300.137054,111.579224 301.417786,110.142502 302.698517,108.705780 
	C302.698517,108.705772 302.995117,108.985947 303.198273,108.854004 
	C303.871765,108.037941 304.342102,107.353828 304.812469,106.669708 
	C304.906982,106.515038 305.001526,106.360359 305.417969,105.995590 
	C305.739929,105.785492 306.053223,105.441322 306.053223,105.441322 
	C306.053223,105.441322 306.087830,105.220345 306.518341,105.123138 
	C307.596802,104.272446 308.244781,103.518967 308.892731,102.765495 
	C310.019836,101.595390 311.146912,100.425293 312.777466,98.977646 
	C313.500275,98.421028 313.719696,98.141945 313.939117,97.862869 
	C314.337067,97.410187 314.734985,96.957497 315.523010,96.694283 
	C315.961243,98.281464 316.009430,99.679184 316.057648,101.076897 
	C316.057648,101.076897 316.005310,101.018852 315.821869,101.136383 
	C315.362518,101.444496 315.154572,101.692131 315.014618,101.996841 
	C313.169403,103.819641 311.324188,105.642441 309.066071,107.897812 
	C308.411102,108.842072 308.169006,109.353752 307.926910,109.865433 
	C307.926910,109.865433 307.940582,109.941032 307.604675,110.010010 
	C306.901459,110.537857 306.534119,110.996742 306.166748,111.455627 
	C305.462646,112.293884 304.758545,113.132149 303.482300,114.197685 
	C302.669434,114.791298 302.428711,115.157646 302.187988,115.523987 
	C300.236267,117.955620 298.284546,120.387260 296.141144,123.332672 
	C296.114563,124.219719 296.279694,124.592987 296.444824,124.966255 
	C297.021637,125.008835 297.598450,125.051407 298.804413,125.297485 
	C299.951569,125.640442 300.469574,125.779892 301.110260,126.208389 
	C301.715912,128.004395 302.198883,129.511368 302.783875,131.237976 
	C302.885864,131.457626 303.031586,131.919540 303.074036,132.206573 
	C304.071228,132.358032 305.025940,132.222443 306.297607,131.979187 
	C307.909882,131.017822 309.205231,130.164139 310.734161,129.627579 
	C311.645325,130.296310 312.322937,130.647888 313.010040,131.294189 
	C313.040527,131.784348 313.061523,131.979782 312.957031,132.463959 
	C311.836578,133.817535 310.841614,134.882401 309.525696,136.067261 
	C309.060760,137.253662 308.916809,138.320053 308.772827,139.386444 
	C310.195435,139.211304 311.618011,139.036179 313.172119,138.676208 
	C313.303650,138.491364 313.713104,138.295914 313.778259,138.781830 
	C313.916870,141.223862 313.990295,143.179962 314.063721,145.136063 
	C313.982513,145.465332 313.792450,145.709991 312.949463,146.005859 
	C311.956635,146.804092 311.507843,147.466507 311.059052,148.128937 
	C309.532654,149.645111 308.006256,151.161301 305.869141,152.675476 
	C295.478058,148.384079 285.697693,144.094681 275.917328,139.805283 
	C276.372345,138.660538 276.827362,137.515778 277.760742,135.996704 
	C278.483765,135.072815 278.728424,134.523270 278.973053,133.973724 
	C278.973053,133.973724 279.000000,134.000000 279.349121,133.922821 
	C280.397339,132.429230 281.096436,131.012817 281.795532,129.596405 
	C281.795532,129.596405 281.876190,129.262833 282.182678,129.011200 
	C282.730682,128.558792 282.903595,128.310257 283.007874,128.013977 
	C283.497559,127.435646 283.987274,126.857315 284.944397,126.014320 
	C285.601105,125.477028 285.790375,125.204399 285.979675,124.931778 
	C286.096191,124.616737 286.299255,124.374123 287.177307,124.097595 
	C288.845093,122.664413 289.924377,121.337570 291.003662,120.010719 
M295.496704,119.531479 
	C295.496704,119.531479 295.478912,119.487129 295.496704,119.531479 
z"/>
<path fill="#81C397" opacity="1.000000" stroke="none" 
	d="
M275.672791,139.865372 
	C285.697693,144.094681 295.478058,148.384079 305.573486,152.814285 
	C306.274384,153.893967 306.391754,155.169113 307.085175,155.722809 
	C326.820251,171.480942 337.789612,191.892471 339.928192,217.063828 
	C340.021667,218.163528 340.514679,219.229309 340.808075,220.263351 
	C347.164673,219.626312 349.703094,222.240723 348.348511,227.743988 
	C347.752197,225.757431 348.255951,223.065704 344.706299,224.847855 
	C343.264832,224.186371 342.118256,223.653992 340.885071,222.971741 
	C340.542175,222.924713 340.285919,223.027588 339.825134,223.307358 
	C338.760010,223.348923 337.899445,223.213577 336.963440,222.754517 
	C336.221252,221.932449 335.554474,221.434082 334.925476,220.487152 
	C334.968109,217.027603 334.972992,214.016617 335.333069,210.894653 
	C337.659668,206.740112 336.299408,200.716476 332.569489,197.817047 
	C330.633972,194.213181 328.975342,190.833237 327.247070,187.489288 
	C321.407410,176.190384 314.208649,165.869308 303.337158,158.951996 
	C296.188873,154.403687 288.617981,150.291565 280.771027,147.144226 
	C274.897705,144.788528 268.260834,144.372589 262.014221,142.882080 
	C260.721344,142.573593 259.077606,141.552689 258.658966,140.454666 
	C258.325073,139.579086 259.536163,138.044022 260.204376,136.884048 
	C260.583771,136.225403 261.250610,135.732346 262.119507,134.814606 
	C260.586548,133.405396 259.287354,132.211075 257.871277,130.764038 
	C259.200562,129.985733 260.646667,129.460129 262.092804,128.934525 
	C262.092804,128.934525 262.035187,128.989960 262.107574,129.288055 
	C263.130585,130.053726 264.081238,130.521301 265.031860,130.988892 
	C265.031860,130.988892 264.997528,131.002563 265.000427,131.411438 
	C264.991486,132.798218 264.906891,133.781845 264.983185,134.752823 
	C265.134247,136.675461 265.178436,140.199570 265.608673,140.251907 
	C268.690308,140.626831 271.857941,140.294922 274.998260,140.187546 
	C275.141571,140.100189 275.284912,140.012817 275.672791,139.865372 
z"/>
<path fill="#82C295" opacity="1.000000" stroke="none" 
	d="
M210.084763,149.121307 
	C215.029068,146.978699 219.973373,144.836090 225.024658,142.339401 
	C226.409195,142.441147 227.664185,143.179565 228.969879,143.283981 
	C230.758377,143.427048 232.585373,143.088669 234.691498,143.268478 
	C234.990402,144.045380 234.993683,144.510406 234.742142,145.220337 
	C232.853699,146.257446 231.293427,147.299774 229.575241,147.803558 
	C210.354050,153.439316 197.228775,166.631531 186.994476,182.943344 
	C182.899521,189.470047 180.376480,196.983002 176.845398,204.027695 
	C176.358627,203.997986 176.164383,203.987610 175.973602,203.550980 
	C176.263199,200.228577 176.549362,197.332413 176.835526,194.436249 
	C181.550690,178.689346 191.453781,166.616684 203.807434,156.259613 
	C204.995636,155.263458 205.958344,153.998352 207.290543,152.423920 
	C208.398499,151.033615 209.241623,150.077469 210.084763,149.121307 
z"/>
<path fill="#8FC289" opacity="1.000000" stroke="none" 
	d="
M208.975616,231.194702 
	C208.237198,231.177490 207.498795,231.160263 205.925156,231.112167 
	C199.872131,231.084305 194.654327,231.087326 189.436523,231.090347 
	C181.925873,231.086044 174.415207,231.081757 166.449203,230.653625 
	C165.990341,229.818359 165.986832,229.406921 166.415863,228.994690 
	C169.232544,228.331497 171.616714,227.669113 174.401245,227.000854 
	C175.869385,226.999252 176.937149,227.003540 178.089294,227.333466 
	C179.811630,229.579071 181.096039,229.425247 182.330139,227.002686 
	C183.113281,227.001923 183.560791,227.006195 184.120056,227.372253 
	C186.484604,228.152405 188.737411,228.570755 191.459473,228.993378 
	C243.902954,228.994171 295.877167,228.990677 347.851410,228.987198 
	C346.027008,229.723373 344.224579,231.026077 342.374420,231.097794 
	C334.319611,231.410065 326.250916,231.364105 317.814209,231.714233 
	C310.207458,231.880676 302.973785,231.781174 295.359711,231.842010 
	C293.534088,231.736221 292.089111,231.239716 290.643646,231.238220 
	C265.586945,231.212204 240.530197,231.247009 214.572021,231.219940 
	C212.105576,231.179108 210.540604,231.186905 208.975616,231.194702 
z"/>
<path fill="#6DBDB3" opacity="1.000000" stroke="none" 
	d="
M209.826126,148.887177 
	C209.241623,150.077469 208.398499,151.033615 207.224121,152.073822 
	C188.810181,133.589706 170.154633,115.456955 160.184097,90.359299 
	C163.742142,90.727936 163.621872,93.971672 165.052948,96.369225 
	C167.424286,100.341980 171.378571,103.334427 174.401703,106.960205 
	C183.636276,118.035713 192.711166,129.244247 201.925491,140.336823 
	C204.328079,143.229126 207.012512,145.887314 209.826126,148.887177 
z"/>
<path fill="#82C594" opacity="1.000000" stroke="none" 
	d="
M347.949707,228.806885 
	C295.877167,228.990677 243.902954,228.994171 191.346069,228.745758 
	C190.509399,228.012711 190.255371,227.531555 190.469727,227.036362 
	C240.298065,227.015564 289.658081,227.032486 339.017761,226.916519 
	C341.013763,226.911835 343.006805,225.651993 345.001221,224.976959 
	C348.255951,223.065704 347.752197,225.757431 348.077637,227.843323 
	C348.104706,228.219803 348.047974,228.626572 347.949707,228.806885 
z"/>
<path fill="#67B3BB" opacity="1.000000" stroke="none" 
	d="
M314.367157,144.990982 
	C313.990295,143.179962 313.916870,141.223862 313.963806,138.536377 
	C315.018738,136.870270 315.943726,135.925705 316.889374,135.002319 
	C326.352814,125.761841 335.819641,116.524849 345.285522,107.286888 
	C345.285553,107.286896 345.226746,107.179634 345.488007,107.137070 
	C346.025665,106.777023 346.302063,106.459541 346.578491,106.142059 
	C346.578491,106.142067 346.836609,106.138489 347.140930,105.959290 
	C347.709991,105.571495 347.862030,105.299835 347.901367,104.965103 
	C347.901367,104.965103 347.972504,104.974075 348.227142,104.825928 
	C348.997040,104.123161 349.512329,103.568542 350.027588,103.013924 
	C350.027588,103.013924 349.998779,102.998520 350.291077,102.887474 
	C351.422394,101.880272 352.261444,100.984116 353.100494,100.087967 
	C353.100494,100.087967 353.056305,100.025749 353.316223,99.978951 
	C353.815643,99.650932 354.055176,99.369720 354.294678,99.088501 
	C355.147491,98.713394 356.000336,98.338287 356.853149,97.963188 
	C357.209290,98.358612 357.565399,98.754036 357.921539,99.149467 
	C344.085175,114.909874 329.340515,129.843887 314.367157,144.990982 
z"/>
<path fill="#1D324C" opacity="1.000000" stroke="none" 
	d="
M310.500580,129.310455 
	C309.205231,130.164139 307.909882,131.017822 305.930908,131.933014 
	C304.508728,131.969513 303.770142,131.944534 303.031586,131.919540 
	C303.031586,131.919540 302.885864,131.457626 302.885498,130.889160 
	C315.584229,116.539124 328.283386,102.757553 340.982513,88.975983 
	C339.310211,91.657600 337.719116,94.394684 335.937897,97.001907 
	C334.688568,98.830597 332.921967,100.500740 336.509888,102.247253 
	C332.035309,107.241722 327.366150,111.876419 322.697815,116.541763 
	C322.698608,116.572418 322.729950,116.624336 322.454956,116.701309 
	C321.803497,117.193092 321.427002,117.607910 321.026428,118.009949 
	C321.002319,117.997169 321.010620,118.051109 320.770599,118.120392 
	C320.225464,118.371109 320.035339,118.635292 319.738708,119.078552 
	C319.245880,119.375137 319.071045,119.639305 318.755493,120.060822 
	C318.343658,120.436272 318.169098,120.718254 317.777222,121.087273 
	C317.271698,121.331482 317.072968,121.564850 316.705841,121.969238 
	C316.247070,122.361641 316.046173,122.659233 315.639771,123.047867 
	C315.181458,123.328278 315.026794,123.578369 314.715759,123.990417 
	C314.226501,124.366188 313.991791,124.640732 313.458466,125.054764 
	C312.315155,126.574493 311.470459,127.954742 310.596130,129.320404 
	C310.566498,129.305801 310.500580,129.310455 310.500580,129.310455 
z"/>
<path fill="#6EBDB3" opacity="1.000000" stroke="none" 
	d="
M168.374603,280.008423 
	C173.028793,269.597107 182.274338,262.843628 189.909149,254.685257 
	C191.816483,252.647125 193.003342,249.865051 195.078949,248.069489 
	C198.737167,244.904816 202.824509,242.236221 207.104492,239.492905 
	C197.485474,251.272202 187.626740,263.037140 177.397461,274.470581 
	C175.198624,276.928284 171.660858,278.188080 168.374603,280.008423 
z"/>
<path fill="#6CBDB2" opacity="1.000000" stroke="none" 
	d="
M187.163391,234.710419 
	C189.882462,237.580872 189.006439,239.337723 186.040955,241.788498 
	C177.709549,248.673935 169.774002,256.049164 161.867310,263.429352 
	C160.118988,265.061279 159.133316,267.510223 157.796478,269.582977 
	C157.179214,269.361877 156.561966,269.140778 155.944702,268.919678 
	C155.944702,271.047363 155.944702,273.175079 155.923248,275.743835 
	C155.467133,273.590393 154.000610,270.597748 154.815704,268.485535 
	C156.441467,264.272675 158.628983,259.826019 161.816757,256.755188 
	C169.799347,249.065567 178.469635,242.089844 187.163391,234.710419 
z"/>
<path fill="#67B6BC" opacity="1.000000" stroke="none" 
	d="
M340.988556,88.987823 
	C328.283386,102.757553 315.584229,116.539124 302.783478,130.669510 
	C302.198883,129.511368 301.715912,128.004395 301.250183,125.914886 
	C301.459808,124.493301 301.652191,123.654266 301.844604,122.815224 
	C301.844604,122.815224 301.891174,122.880150 302.094360,122.777374 
	C302.497528,122.386330 302.697479,122.098068 302.897461,121.809807 
	C302.897461,121.809807 302.911804,121.908218 303.104797,121.786743 
	C303.506927,121.377853 303.716034,121.090439 303.925140,120.803017 
	C313.806030,111.404373 323.693634,102.012802 333.560120,92.599045 
	C334.950439,91.272507 336.237335,89.837563 337.996277,88.099411 
	C338.703339,87.562645 338.861603,87.303223 338.895203,86.967758 
	C338.895203,86.967758 338.966370,86.974663 339.291138,86.912636 
	C340.069000,87.561653 340.522095,88.272697 340.975220,88.983734 
	C340.975220,88.983734 340.994598,88.999664 340.988556,88.987823 
z"/>
<path fill="#1D344E" opacity="1.000000" stroke="none" 
	d="
M344.920776,107.251968 
	C335.819641,116.524849 326.352814,125.761841 316.889374,135.002319 
	C315.943726,135.925705 315.018738,136.870270 313.898621,138.050446 
	C313.713104,138.295914 313.303650,138.491364 312.773987,138.696289 
	C311.445099,137.916550 310.645874,136.931900 309.846649,135.947266 
	C310.841614,134.882401 311.836578,133.817535 313.205383,132.350006 
	C313.794922,131.660629 314.010590,131.373932 314.420227,131.003632 
	C314.855957,130.748077 315.008392,130.517136 315.317566,130.098648 
	C315.748444,129.656662 315.933258,129.343246 316.322144,128.939758 
	C316.779694,128.671143 316.951172,128.433441 317.294495,128.035217 
	C317.745392,127.635818 317.942535,127.337799 318.346802,126.942749 
	C318.808075,126.650085 318.964417,126.394592 319.261353,125.975403 
	C319.677856,125.583305 319.855896,125.295029 320.247131,124.903732 
	C320.726013,124.608826 320.909637,124.357094 321.255066,123.958328 
	C321.658630,123.578384 321.818390,123.285606 322.239471,122.793709 
	C323.839203,121.122658 325.177612,119.650719 326.782776,118.008865 
	C330.046997,114.933182 333.044434,112.027412 336.041901,109.121643 
	C336.129120,112.030930 337.353546,112.524216 339.635559,110.826729 
	C341.267639,109.612663 342.915314,108.419525 344.920776,107.251968 
z"/>
<path fill="#6BBCB4" opacity="1.000000" stroke="none" 
	d="
M308.764740,249.191986 
	C308.936829,247.827805 309.213928,246.747299 309.843750,244.291077 
	C314.131836,248.893204 317.805328,252.688492 321.308716,256.634827 
	C325.247620,261.071777 329.198364,265.518158 332.806580,270.219391 
	C334.321075,272.192657 334.969177,274.830872 336.019043,277.555786 
	C332.979614,275.724274 329.443665,273.942291 326.980621,271.197479 
	C320.688599,264.185730 314.874817,256.744873 308.764740,249.191986 
z"/>
<path fill="#66B3BB" opacity="1.000000" stroke="none" 
	d="
M336.037048,109.085327 
	C333.044434,112.027412 330.046997,114.933182 326.396362,117.850693 
	C324.727814,117.411987 323.712402,116.961548 322.697021,116.511108 
	C327.366150,111.876419 332.035309,107.241722 336.842285,102.305504 
	C340.161377,99.137749 343.250824,96.157654 346.578888,93.473465 
	C347.600006,92.649933 349.274719,92.636787 350.551544,92.646240 
	C350.304016,93.361671 350.155090,93.683403 350.006165,94.005127 
	C349.690887,94.119698 349.433136,94.311523 348.885895,94.876526 
	C348.247925,95.382690 348.102051,95.667313 348.101318,96.026321 
	C347.744781,96.376801 347.388214,96.727280 346.645264,97.467010 
	C345.737976,98.530830 345.217102,99.205406 344.696198,99.879974 
	C344.176117,100.357430 343.656067,100.834877 342.798523,101.689133 
	C342.269592,102.366920 342.078186,102.667908 341.886780,102.968903 
	C341.585114,103.053978 341.342682,103.223679 340.817688,103.786751 
	C340.289612,104.390129 340.103363,104.684746 339.917084,104.979370 
	C339.374420,105.496056 338.831726,106.012726 337.882202,106.881302 
	C337.018677,107.840012 336.562012,108.446823 336.105347,109.053627 
	C336.105316,109.053619 336.032227,109.049019 336.037048,109.085327 
z"/>
<path fill="#68AFB8" opacity="1.000000" stroke="none" 
	d="
M316.364319,100.951675 
	C316.009430,99.679184 315.961243,98.281464 315.784485,96.539612 
	C322.279022,89.809921 328.902100,83.424362 335.525146,77.038803 
	C336.069702,77.544960 336.614258,78.051117 337.158813,78.557281 
	C331.091919,86.622047 323.642181,93.522835 316.364319,100.951675 
z"/>
<path fill="#7DC59D" opacity="1.000000" stroke="none" 
	d="
M234.996979,144.975449 
	C234.993683,144.510406 234.990402,144.045380 234.978668,143.231506 
	C235.780548,142.016281 236.590881,141.149918 238.054443,140.463440 
	C241.895569,140.643326 245.083481,140.643326 248.414154,140.643326 
	C247.849594,137.776184 247.382553,135.404327 247.091324,132.734192 
	C249.571396,130.469070 251.586288,126.941933 254.696472,131.149017 
	C248.855911,133.498856 248.892838,133.467270 252.479141,137.660507 
	C254.780884,140.351776 253.214447,142.222946 250.613113,142.743576 
	C245.465042,143.773911 240.208618,144.262741 234.996979,144.975449 
z"/>
<path fill="#8AB58D" opacity="1.000000" stroke="none" 
	d="
M165.983337,228.995499 
	C165.986832,229.406921 165.990341,229.818359 165.992035,230.538208 
	C162.561981,230.001846 161.193115,227.273239 162.266998,224.504379 
	C163.045273,222.497696 165.569321,220.263992 167.641800,219.875504 
	C170.741669,219.294434 171.490189,218.180405 171.972778,215.239792 
	C173.086884,208.451050 174.831757,201.765823 176.578156,194.737427 
	C176.549362,197.332413 176.263199,200.228577 175.733948,203.851746 
	C174.678818,208.095581 173.275162,211.601746 173.211609,215.132050 
	C173.139893,219.116364 172.065170,220.919037 167.943069,221.669632 
	C163.297440,222.515579 162.848434,225.011765 165.983337,228.995499 
z"/>
<path fill="#6CBDB2" opacity="1.000000" stroke="none" 
	d="
M189.393341,231.424728 
	C194.654327,231.087326 199.872131,231.084305 205.556366,231.137421 
	C205.143127,231.782120 204.320526,232.754349 203.374283,232.895020 
	C198.410889,233.632965 193.416199,234.160400 188.015015,234.635681 
	C188.181824,233.593277 188.765991,232.676193 189.393341,231.424728 
z"/>
<path fill="#8CB687" opacity="1.000000" stroke="none" 
	d="
M255.007996,131.000290 
	C251.586288,126.941933 249.571396,130.469070 246.872589,132.836594 
	C246.052383,133.475159 245.626694,133.713058 245.201019,133.950958 
	C246.358551,132.300018 247.516068,130.649078 249.277466,128.650925 
	C253.907852,128.277100 257.934357,128.250504 261.960876,128.223892 
	C261.960876,128.223892 262.038879,128.577087 262.065857,128.755798 
	C260.646667,129.460129 259.200562,129.985733 257.795593,131.068085 
	C256.893829,131.416641 255.950912,131.208466 255.007996,131.000290 
z"/>
<path fill="#8CB687" opacity="1.000000" stroke="none" 
	d="
M274.662933,140.138779 
	C271.857941,140.294922 268.690308,140.626831 265.608673,140.251907 
	C265.178436,140.199570 265.134247,136.675461 264.983185,134.752823 
	C264.906891,133.781845 264.991486,132.798218 265.007294,131.394257 
	C265.011230,130.968185 265.421844,130.996353 265.723450,131.385742 
	C266.192566,134.008392 266.360107,136.241653 266.557587,138.873962 
	C267.877930,138.947205 269.486908,139.036469 271.095886,139.125732 
	C272.173126,139.447159 273.250366,139.768585 274.662933,140.138779 
z"/>
<path fill="#8DB983" opacity="1.000000" stroke="none" 
	d="
M245.121674,134.389435 
	C245.626694,133.713058 246.052383,133.475159 246.696777,133.134857 
	C247.382553,135.404327 247.849594,137.776184 248.414154,140.643326 
	C245.083481,140.643326 241.895569,140.643326 238.358429,140.448914 
	C240.315796,139.682007 242.622437,139.109512 245.042328,138.508926 
	C245.042328,137.287064 245.042328,136.057495 245.121674,134.389435 
z"/>
<path fill="#1D324C" opacity="1.000000" stroke="none" 
	d="
M341.341888,88.972855 
	C340.522095,88.272697 340.069000,87.561653 339.284424,86.877518 
	C339.950256,85.690453 340.834137,84.332687 342.039276,83.382286 
	C342.284058,83.189255 343.739838,84.531868 344.637329,85.166550 
	C343.661072,86.431694 342.684814,87.696838 341.341888,88.972855 
z"/>
<path fill="#6BBCB4" opacity="1.000000" stroke="none" 
	d="
M336.265808,278.260193 
	C337.330353,278.148376 338.831512,277.955719 339.833588,278.573151 
	C343.520691,280.844910 346.888428,279.828278 350.676056,278.045288 
	C347.220886,282.043030 344.255188,282.148041 336.265808,278.260193 
z"/>
<path fill="#283132" opacity="1.000000" stroke="none" 
	d="
M261.783997,127.868164 
	C257.934357,128.250504 253.907852,128.277100 249.473846,128.404434 
	C252.954498,124.484177 257.231812,125.379593 261.783997,127.868164 
z"/>
<path fill="#283132" opacity="1.000000" stroke="none" 
	d="
M270.828491,138.860260 
	C269.486908,139.036469 267.877930,138.947205 266.557587,138.873962 
	C266.360107,136.241653 266.192566,134.008392 265.927124,131.415161 
	C266.548676,132.151886 267.287445,133.236481 267.982727,134.348267 
	C268.860687,135.752182 269.703247,137.178268 270.828491,138.860260 
z"/>
<path fill="#6CBDB2" opacity="1.000000" stroke="none" 
	d="
M209.073837,231.505997 
	C210.540604,231.186905 212.105576,231.179108 214.143265,231.243774 
	C213.649124,232.514496 212.682281,233.712769 211.434174,235.083679 
	C210.492630,234.109985 209.832336,232.963638 209.073837,231.505997 
z"/>
<path fill="#64A8B1" opacity="1.000000" stroke="none" 
	d="
M302.403137,108.823914 
	C301.417786,110.142502 300.137054,111.579224 298.500000,113.037544 
	C299.465027,111.686790 300.786377,110.314423 302.403137,108.823914 
z"/>
<path fill="#64A8B1" opacity="1.000000" stroke="none" 
	d="
M290.709229,120.134125 
	C289.924377,121.337570 288.845093,122.664413 287.399597,124.004395 
	C288.160553,122.764191 289.287689,121.510864 290.709229,120.134125 
z"/>
<path fill="#64A8B1" opacity="1.000000" stroke="none" 
	d="
M281.509613,129.770615 
	C281.096436,131.012817 280.397339,132.429230 279.334900,133.910461 
	C279.722260,132.631805 280.472992,131.288315 281.509613,129.770615 
z"/>
<path fill="#63A9B3" opacity="1.000000" stroke="none" 
	d="
M301.567322,122.940140 
	C301.652191,123.654266 301.459808,124.493301 301.127502,125.625847 
	C300.469574,125.779892 299.951569,125.640442 299.238098,125.310226 
	C299.791748,124.434662 300.540894,123.749855 301.567322,122.940140 
z"/>
<path fill="#1D344E" opacity="1.000000" stroke="none" 
	d="
M352.732300,100.080414 
	C352.261444,100.984116 351.422394,101.880272 350.299072,102.901619 
	C350.797913,102.042168 351.581024,101.057518 352.732300,100.080414 
z"/>
<path fill="#68AFB8" opacity="1.000000" stroke="none" 
	d="
M308.613922,102.884415 
	C308.244781,103.518967 307.596802,104.272446 306.615479,105.067719 
	C306.966461,104.407455 307.650787,103.705391 308.613922,102.884415 
z"/>
<path fill="#8CB687" opacity="1.000000" stroke="none" 
	d="
M265.021027,130.792068 
	C264.081238,130.521301 263.130585,130.053726 262.113464,129.248505 
	C262.383820,128.850815 262.710815,128.884888 263.442993,129.312683 
	C264.221588,129.810120 264.585175,130.007965 264.948792,130.205811 
	C264.948792,130.205811 265.010193,130.595245 265.021027,130.792068 
z"/>
<path fill="#64A8B1" opacity="1.000000" stroke="none" 
	d="
M304.524231,106.778847 
	C304.342102,107.353828 303.871765,108.037941 303.050415,108.715454 
	C303.211609,108.101891 303.723816,107.494934 304.524231,106.778847 
z"/>
<path fill="#1D344E" opacity="1.000000" stroke="none" 
	d="
M345.058594,99.834763 
	C345.217102,99.205406 345.737976,98.530830 346.544464,97.698517 
	C346.360352,98.290359 345.890656,99.039948 345.058594,99.834763 
z"/>
<path fill="#67B3BB" opacity="1.000000" stroke="none" 
	d="
M311.342651,148.025406 
	C311.507843,147.466507 311.956635,146.804092 312.723969,146.082214 
	C312.570404,146.655792 312.098297,147.288849 311.342651,148.025406 
z"/>
<path fill="#1D344E" opacity="1.000000" stroke="none" 
	d="
M349.723145,103.066360 
	C349.512329,103.568542 348.997040,104.123161 348.215759,104.791946 
	C348.439392,104.310333 348.929077,103.714561 349.723145,103.066360 
z"/>
<path fill="#1D344E" opacity="1.000000" stroke="none" 
	d="
M336.399170,108.975243 
	C336.562012,108.446823 337.018677,107.840012 337.745850,107.129105 
	C337.575195,107.648949 337.134094,108.272896 336.399170,108.975243 
z"/>
<path fill="#63A9B3" opacity="1.000000" stroke="none" 
	d="
M308.195923,109.728760 
	C308.169006,109.353752 308.411102,108.842072 308.893585,108.168457 
	C308.910980,108.535042 308.687958,109.063560 308.195923,109.728760 
z"/>
<path fill="#6EBDB3" opacity="1.000000" stroke="none" 
	d="
M209.267380,237.760498 
	C209.268494,237.369003 209.539139,236.864227 210.082855,236.245026 
	C210.082916,236.636124 209.809906,237.141678 209.267380,237.760498 
z"/>
<path fill="#63A9B3" opacity="1.000000" stroke="none" 
	d="
M296.421753,124.710419 
	C296.279694,124.592987 296.114563,124.219719 295.958435,123.690414 
	C296.111145,123.841118 296.254913,124.147850 296.421753,124.710419 
z"/>
<path fill="#63A9B3" opacity="1.000000" stroke="none" 
	d="
M306.439941,111.340378 
	C306.534119,110.996742 306.901459,110.537857 307.566895,110.003204 
	C307.481018,110.359993 307.097076,110.792557 306.439941,111.340378 
z"/>
<path fill="#64A8B1" opacity="1.000000" stroke="none" 
	d="
M278.724487,134.142532 
	C278.728424,134.523270 278.483765,135.072815 277.957825,135.758148 
	C277.943024,135.366409 278.209473,134.838867 278.724487,134.142532 
z"/>
<path fill="#1D344E" opacity="1.000000" stroke="none" 
	d="
M354.033569,99.185310 
	C354.055176,99.369720 353.815643,99.650932 353.306946,100.015976 
	C353.282684,99.827240 353.527588,99.554680 354.033569,99.185310 
z"/>
<path fill="#1D344E" opacity="1.000000" stroke="none" 
	d="
M350.216553,93.842834 
	C350.155090,93.683403 350.304016,93.361671 350.679810,92.892410 
	C350.746704,93.056755 350.586823,93.368645 350.216553,93.842834 
z"/>
<path fill="#6DBDB3" opacity="1.000000" stroke="none" 
	d="
M158.972931,86.263084 
	C159.329514,86.151772 159.460495,86.391075 159.273865,86.848656 
	C159.171127,86.965614 158.962250,86.512383 158.972931,86.263084 
z"/>
<path fill="#1D324C" opacity="1.000000" stroke="none" 
	d="
M338.709656,87.086441 
	C338.861603,87.303223 338.703339,87.562645 338.196655,87.815903 
	C338.108215,87.619659 338.291962,87.392769 338.709656,87.086441 
z"/>
<path fill="#68AFB8" opacity="1.000000" stroke="none" 
	d="
M313.673126,97.947456 
	C313.719696,98.141945 313.500275,98.421028 313.035706,98.812988 
	C312.996063,98.627930 313.201599,98.329987 313.673126,97.947456 
z"/>
<path fill="#68AFB8" opacity="1.000000" stroke="none" 
	d="
M315.279480,101.964905 
	C315.154572,101.692131 315.362518,101.444496 315.859314,101.147522 
	C315.901581,101.338402 315.722961,101.635696 315.279480,101.964905 
z"/>
<path fill="#1D344E" opacity="1.000000" stroke="none" 
	d="
M342.120422,102.834671 
	C342.078186,102.667908 342.269592,102.366920 342.703217,101.940071 
	C342.748322,102.109619 342.551208,102.405022 342.120422,102.834671 
z"/>
<path fill="#63A9B3" opacity="1.000000" stroke="none" 
	d="
M302.640320,121.907761 
	C302.697479,122.098068 302.497528,122.386330 302.058105,122.794189 
	C302.006866,122.611092 302.195007,122.308395 302.640320,121.907761 
z"/>
<path fill="#1D344E" opacity="1.000000" stroke="none" 
	d="
M348.289398,95.892990 
	C348.102051,95.667313 348.247925,95.382690 348.773315,95.092659 
	C348.888977,95.302986 348.712250,95.551910 348.289398,95.892990 
z"/>
<path fill="#63A9B3" opacity="1.000000" stroke="none" 
	d="
M302.476868,115.370819 
	C302.428711,115.157646 302.669434,114.791298 303.224182,114.301743 
	C303.280701,114.524910 303.023224,114.871277 302.476868,115.370819 
z"/>
<path fill="#283132" opacity="1.000000" stroke="none" 
	d="
M264.777740,129.943680 
	C264.585175,130.007965 264.221588,129.810120 263.690033,129.343597 
	C263.883636,129.277145 264.245148,129.479340 264.777740,129.943680 
z"/>
<path fill="#64A8B1" opacity="1.000000" stroke="none" 
	d="
M282.765289,128.079819 
	C282.903595,128.310257 282.730682,128.558792 282.295349,128.881805 
	C282.241943,128.717896 282.382324,128.431778 282.765289,128.079819 
z"/>
<path fill="#64A8B1" opacity="1.000000" stroke="none" 
	d="
M285.731628,125.018600 
	C285.790375,125.204399 285.601105,125.477028 285.191498,125.872002 
	C285.141968,125.698044 285.312775,125.401733 285.731628,125.018600 
z"/>
<path fill="#6EBDB3" opacity="1.000000" stroke="none" 
	d="
M207.623459,239.282944 
	C207.551239,239.039566 207.776169,238.698822 208.300476,238.254333 
	C208.373444,238.495590 208.147018,238.840591 207.623459,239.282944 
z"/>
<path fill="#1D344E" opacity="1.000000" stroke="none" 
	d="
M346.275085,106.236916 
	C346.302063,106.459541 346.025665,106.777023 345.437988,107.172272 
	C345.408356,106.943954 345.690002,106.637863 346.275085,106.236916 
z"/>
<path fill="#63A9B3" opacity="1.000000" stroke="none" 
	d="
M303.664062,120.898438 
	C303.716034,121.090439 303.506927,121.377853 303.055084,121.786934 
	C303.009247,121.603676 303.206116,121.298759 303.664062,120.898438 
z"/>
<path fill="#1D344E" opacity="1.000000" stroke="none" 
	d="
M347.714081,105.090164 
	C347.862030,105.299835 347.709991,105.571495 347.219360,105.856796 
	C347.115784,105.652878 347.293549,105.413452 347.714081,105.090164 
z"/>
<path fill="#68AFB8" opacity="1.000000" stroke="none" 
	d="
M305.925201,105.459900 
	C306.053223,105.441322 305.739929,105.785492 305.641754,105.841125 
	C305.543732,105.706207 305.628265,105.566788 305.925201,105.459900 
z"/>
<path fill="#1D344E" opacity="1.000000" stroke="none" 
	d="
M340.143372,104.851181 
	C340.103363,104.684746 340.289612,104.390129 340.722076,103.990753 
	C340.768738,104.165001 340.569214,104.444000 340.143372,104.851181 
z"/>
<path fill="#2F2E4E" opacity="1.000000" stroke="none" 
	d="
M249.020493,336.391296 
	C258.648834,337.409760 261.371582,342.365387 259.633942,354.966797 
	C258.776489,361.184814 254.306046,363.848267 246.263824,362.583862 
	C246.263824,354.719116 246.194763,346.771484 246.366714,338.829102 
	C246.384628,338.001129 247.830475,337.204071 249.020493,336.391296 
z"/>
<path fill="#30304F" opacity="1.000000" stroke="none" 
	d="
M246.245880,315.028717 
	C246.246262,311.432373 246.246262,308.324280 246.246262,305.197571 
	C250.990585,304.479187 255.026459,304.870728 257.117798,309.032013 
	C259.599670,313.970337 259.821411,319.366180 257.182587,324.309753 
	C255.060837,328.284637 251.058533,328.873444 246.245483,328.416534 
	C246.245483,324.039429 246.245483,319.778198 246.245880,315.028717 
z"/>
<path fill="#2B2B4C" opacity="1.000000" stroke="none" 
	d="
M213.021484,316.307892 
	C213.030945,328.072693 213.101776,339.373199 212.977280,350.671539 
	C212.946518,353.462189 212.857742,356.516907 211.717575,358.943756 
	C210.864273,360.760040 208.460449,362.396759 206.423294,362.977112 
	C203.492996,363.811951 201.375153,362.006195 200.538345,359.009583 
	C200.315735,358.212402 200.034500,357.389648 200.034241,356.578552 
	C200.029251,341.481354 199.955780,326.382690 200.166489,311.288086 
	C200.216537,307.702728 201.990585,304.880035 206.295547,304.889221 
	C210.349136,304.897858 211.692947,307.504669 212.227936,310.937195 
	C212.482925,312.573334 212.749451,314.207642 213.021484,316.307892 
z"/>
<path fill="#67B3BB" opacity="1.000000" stroke="none" 
	d="
M309.525696,136.067261 
	C310.645874,136.931900 311.445099,137.916550 312.642456,138.881119 
	C311.618011,139.036179 310.195435,139.211304 308.772827,139.386444 
	C308.916809,138.320053 309.060760,137.253662 309.525696,136.067261 
z"/>
<path fill="#67B6BC" opacity="1.000000" stroke="none" 
	d="
M303.074036,132.206573 
	C303.770142,131.944534 304.508728,131.969513 305.613953,132.040680 
	C305.025940,132.222443 304.071228,132.358032 303.074036,132.206573 
z"/>
<path fill="#66B3BB" opacity="1.000000" stroke="none" 
	d="
M313.000519,130.999481 
	C312.322937,130.647888 311.645325,130.296310 310.734161,129.627594 
	C310.500580,129.310455 310.566498,129.305801 310.898926,129.545288 
	C311.820770,130.190109 312.410187,130.595474 312.999817,131.000427 
	C313.000000,131.000000 313.000519,130.999481 313.000519,130.999481 
z"/>
<path fill="#67B6BC" opacity="1.000000" stroke="none" 
	d="
M295.487793,119.509308 
	C295.478912,119.487129 295.496704,119.531479 295.487793,119.509308 
z"/>
<path fill="#66B3BB" opacity="1.000000" stroke="none" 
	d="
M314.226257,131.087234 
	C314.010590,131.373932 313.794922,131.660629 313.330872,132.061279 
	C313.061523,131.979782 313.040527,131.784348 313.010040,131.294189 
	C313.000519,130.999481 313.000000,131.000000 313.306854,131.016403 
	C313.817902,131.050964 314.022064,131.069107 314.226257,131.087234 
z"/>
<path fill="#A3CB6B" opacity="1.000000" stroke="none" 
	d="
M254.696472,131.149017 
	C255.950912,131.208466 256.893829,131.416641 257.912476,131.320786 
	C259.287354,132.211075 260.586548,133.405396 262.119507,134.814606 
	C261.250610,135.732346 260.583771,136.225403 260.204376,136.884048 
	C259.536163,138.044022 258.325073,139.579086 258.658966,140.454666 
	C259.077606,141.552689 260.721344,142.573593 262.014221,142.882080 
	C268.260834,144.372589 274.897705,144.788528 280.771027,147.144226 
	C288.617981,150.291565 296.188873,154.403687 303.337158,158.951996 
	C314.208649,165.869308 321.407410,176.190384 327.247070,187.489288 
	C328.975342,190.833237 330.633972,194.213181 332.600952,198.246170 
	C333.577515,202.945694 334.277679,206.975662 334.977875,211.005646 
	C334.972992,214.016617 334.968109,217.027603 334.468750,220.490311 
	C285.394714,220.947342 236.815231,220.952774 188.235748,220.957611 
	C185.407501,220.957886 182.575897,220.865189 179.751770,220.971939 
	C175.548141,221.130814 174.588272,219.099106 175.382202,215.306747 
	C176.159531,211.593719 176.567703,207.803421 177.137939,204.047028 
	C180.376480,196.983002 182.899521,189.470047 186.994476,182.943344 
	C197.228775,166.631531 210.354050,153.439316 229.575241,147.803558 
	C231.293427,147.299774 232.853699,146.257446 234.742157,145.220337 
	C240.208618,144.262741 245.465042,143.773911 250.613113,142.743576 
	C253.214447,142.222946 254.780884,140.351776 252.479141,137.660507 
	C248.892838,133.467270 248.855911,133.498856 254.696472,131.149017 
z"/>
<path fill="#9DCB7B" opacity="1.000000" stroke="none" 
	d="
M344.706299,224.847855 
	C343.006805,225.651993 341.013763,226.911835 339.017761,226.916519 
	C289.658081,227.032486 240.298065,227.015564 190.041428,227.022491 
	C187.432602,227.018600 185.720444,227.014526 184.008301,227.010468 
	C183.560791,227.006195 183.113281,227.001923 181.931259,227.002197 
	C180.132797,227.007111 179.068863,227.007462 178.004913,227.007812 
	C176.937149,227.003540 175.869385,226.999252 173.969345,227.000366 
	C171.808334,226.974289 170.425095,227.154526 169.171371,226.831726 
	C168.423141,226.639084 167.878067,225.657410 167.241699,225.030426 
	C168.040771,224.420761 168.808304,223.339157 169.644379,223.283295 
	C173.232681,223.043503 176.841156,223.063873 180.442276,223.063721 
	C232.641129,223.061523 284.839996,223.071335 337.038849,223.078247 
	C337.899445,223.213577 338.760010,223.348923 340.060547,223.296371 
	C340.500458,223.108490 340.971710,223.121628 340.971710,223.121628 
	C342.118256,223.653992 343.264832,224.186371 344.706299,224.847855 
z"/>
<path fill="#7AC599" opacity="1.000000" stroke="none" 
	d="
M336.963440,222.754517 
	C284.839996,223.071335 232.641129,223.061523 180.442276,223.063721 
	C176.841156,223.063873 173.232681,223.043503 169.644379,223.283295 
	C168.808304,223.339157 168.040771,224.420761 167.241699,225.030426 
	C167.878067,225.657410 168.423141,226.639084 169.171371,226.831726 
	C170.425095,227.154526 171.808334,226.974289 173.568970,227.006226 
	C171.616714,227.669113 169.232544,228.331497 166.415863,228.994690 
	C162.848434,225.011765 163.297440,222.515579 167.943069,221.669632 
	C172.065170,220.919037 173.139893,219.116364 173.211609,215.132050 
	C173.275162,211.601746 174.678818,208.095581 175.730515,204.277985 
	C176.164383,203.987610 176.358627,203.997986 176.845398,204.027695 
	C176.567703,207.803421 176.159531,211.593719 175.382202,215.306747 
	C174.588272,219.099106 175.548141,221.130814 179.751770,220.971939 
	C182.575897,220.865189 185.407501,220.957886 188.235748,220.957611 
	C236.815231,220.952774 285.394714,220.947342 334.430969,220.938873 
	C335.554474,221.434082 336.221252,221.932449 336.963440,222.754517 
z"/>
<path fill="#7AC599" opacity="1.000000" stroke="none" 
	d="
M335.333069,210.894653 
	C334.277679,206.975662 333.577515,202.945694 332.845886,198.486603 
	C336.299408,200.716476 337.659668,206.740112 335.333069,210.894653 
z"/>
<path fill="#7AC599" opacity="1.000000" stroke="none" 
	d="
M340.885071,222.971741 
	C340.971710,223.121628 340.500458,223.108490 340.265045,223.119476 
	C340.285919,223.027588 340.542175,222.924713 340.885071,222.971741 
z"/>
<path fill="#7AC599" opacity="1.000000" stroke="none" 
	d="
M184.120056,227.372253 
	C185.720444,227.014526 187.432602,227.018600 189.573059,227.036530 
	C190.255371,227.531555 190.509399,228.012711 190.876816,228.741486 
	C188.737411,228.570755 186.484604,228.152405 184.120056,227.372253 
z"/>
<path fill="#7AC599" opacity="1.000000" stroke="none" 
	d="
M178.089294,227.333466 
	C179.068863,227.007462 180.132797,227.007111 181.595627,227.007233 
	C181.096039,229.425247 179.811630,229.579071 178.089294,227.333466 
z"/>
<path fill="#64C4C3" opacity="1.000000" stroke="none" 
	d="
M314.420227,131.003632 
	C314.022064,131.069107 313.817902,131.050964 313.306641,131.016815 
	C312.410187,130.595474 311.820770,130.190109 310.928558,129.559875 
	C311.470459,127.954742 312.315155,126.574493 313.713409,124.953094 
	C314.501404,124.437691 314.735840,124.163437 314.970276,123.889183 
	C315.026794,123.578369 315.181458,123.328278 315.878998,122.927689 
	C316.537048,122.435783 316.750397,122.155106 316.963715,121.874420 
	C317.072968,121.564850 317.271698,121.331482 317.987976,120.961929 
	C318.679199,120.541069 318.871399,120.280342 318.992706,119.967361 
	C319.071045,119.639305 319.245880,119.375137 319.954529,118.973923 
	C320.662231,118.587395 320.868500,118.346771 321.010620,118.051109 
	C321.010620,118.051109 321.002319,117.997169 321.319763,117.955299 
	C322.001434,117.483727 322.365692,117.054031 322.729950,116.624329 
	C322.729950,116.624336 322.698608,116.572418 322.697815,116.541763 
	C323.712402,116.961548 324.727814,117.411987 326.129639,118.020615 
	C325.177612,119.650719 323.839203,121.122658 322.034424,122.925323 
	C321.312714,123.470032 321.127106,123.733185 321.011200,124.045494 
	C320.909637,124.357094 320.726013,124.608826 320.029602,125.031853 
	C319.406921,125.535072 319.214905,125.807152 319.022888,126.079224 
	C318.964417,126.394592 318.808075,126.650085 318.110413,127.066696 
	C317.458191,127.570663 317.249451,127.853638 317.040710,128.136612 
	C316.951172,128.433441 316.779694,128.671143 316.087158,129.080627 
	C315.455902,129.616776 315.263702,129.921997 315.071503,130.227203 
	C315.008392,130.517136 314.855957,130.748077 314.420227,131.003632 
z"/>
<path fill="#66B3BB" opacity="1.000000" stroke="none" 
	d="
M322.454956,116.701309 
	C322.365692,117.054031 322.001434,117.483727 321.343872,117.968079 
	C321.427002,117.607910 321.803497,117.193092 322.454956,116.701309 
z"/>
<path fill="#66B3BB" opacity="1.000000" stroke="none" 
	d="
M318.755493,120.060822 
	C318.871399,120.280342 318.679199,120.541069 318.205322,120.874893 
	C318.169098,120.718254 318.343658,120.436272 318.755493,120.060822 
z"/>
<path fill="#66B3BB" opacity="1.000000" stroke="none" 
	d="
M320.770599,118.120392 
	C320.868500,118.346771 320.662231,118.587395 320.175995,118.877609 
	C320.035339,118.635292 320.225464,118.371109 320.770599,118.120392 
z"/>
<path fill="#66B3BB" opacity="1.000000" stroke="none" 
	d="
M314.715759,123.990417 
	C314.735840,124.163437 314.501404,124.437691 314.012024,124.813614 
	C313.991791,124.640732 314.226501,124.366188 314.715759,123.990417 
z"/>
<path fill="#66B3BB" opacity="1.000000" stroke="none" 
	d="
M316.705841,121.969238 
	C316.750397,122.155106 316.537048,122.435783 316.084473,122.836639 
	C316.046173,122.659233 316.247070,122.361641 316.705841,121.969238 
z"/>
<path fill="#66B3BB" opacity="1.000000" stroke="none" 
	d="
M315.317566,130.098648 
	C315.263702,129.921997 315.455902,129.616776 315.883087,129.170685 
	C315.933258,129.343246 315.748444,129.656662 315.317566,130.098648 
z"/>
<path fill="#66B3BB" opacity="1.000000" stroke="none" 
	d="
M317.294495,128.035217 
	C317.249451,127.853638 317.458191,127.570663 317.903320,127.163734 
	C317.942535,127.337799 317.745392,127.635818 317.294495,128.035217 
z"/>
<path fill="#66B3BB" opacity="1.000000" stroke="none" 
	d="
M319.261353,125.975403 
	C319.214905,125.807152 319.406921,125.535072 319.816406,125.134880 
	C319.855896,125.295029 319.677856,125.583305 319.261353,125.975403 
z"/>
<path fill="#66B3BB" opacity="1.000000" stroke="none" 
	d="
M321.255066,123.958328 
	C321.127106,123.733185 321.312714,123.470032 321.773071,123.124435 
	C321.818390,123.285606 321.658630,123.578384 321.255066,123.958328 
z"/>
</svg>